<svg width="1024" height="1024" viewBox="0 0 1024 1024" fill="none" xmlns="http://www.w3.org/2000/svg">
<rect width="1024" height="1024" fill="url(#paint0_linear_118_42)"/>
<circle cx="380" cy="375" r="275" fill="#C5DAE5"/>
<circle cx="380" cy="375" r="229.5" stroke="url(#paint1_linear_118_42)" stroke-width="25"/>
<path d="M489.8 462.401C493.8 465.867 495.8 470.001 495.8 474.801C495.8 478.534 494.333 482.134 491.4 485.601C479.667 497.867 465 507.201 447.4 513.601C429.8 519.734 411 522.801 391 522.801C359.533 522.801 333 514.401 311.4 497.601C289.8 480.801 275.4 456.801 268.2 425.601H249C243.4 425.601 239 424.401 235.8 422.001C232.6 419.601 231 416.001 231 411.201C231 405.867 232.6 402.134 235.8 400.001C239 397.601 243.4 396.401 249 396.401H263.8C263.267 388.934 263 383.201 263 379.201C263 375.201 263.267 369.467 263.8 362.001H249C237 362.001 231 357.201 231 347.601C231 337.734 237 332.801 249 332.801H267.8C275.267 301.334 289.8 277.201 311.4 260.401C333 243.334 359.533 234.801 391 234.801C410.2 234.801 428.067 237.867 444.6 244.001C461.4 250.134 475.667 259.467 487.4 272.001C490.333 275.467 491.8 278.934 491.8 282.401C491.8 287.201 489.533 291.467 485 295.201C482.6 297.334 479.133 298.401 474.6 298.401C468.467 298.401 463.4 296.401 459.4 292.401C441.533 274.801 418.733 266.001 391 266.001C370.467 266.001 352.867 271.734 338.2 283.201C323.533 294.401 313.133 310.934 307 332.801H399.8C411.8 332.801 417.8 337.734 417.8 347.601C417.8 357.201 411.8 362.001 399.8 362.001H301.8C301.267 369.467 301 375.201 301 379.201C301 383.201 301.267 388.934 301.8 396.401H399.8C405.667 396.401 410.067 397.467 413 399.601C416.2 401.734 417.8 405.601 417.8 411.201C417.8 416.001 416.2 419.601 413 422.001C409.8 424.401 405.4 425.601 399.8 425.601H306.6C312.733 447.201 323.133 463.601 337.8 474.801C352.467 486.001 370.2 491.601 391 491.601C405.933 491.601 419.267 489.467 431 485.201C443 480.934 453.933 474.267 463.8 465.201C469.133 460.401 474.333 458.001 479.4 458.001C483.4 458.001 486.867 459.467 489.8 462.401Z" fill="white"/>
<g filter="url(#filter0_d_118_42)">
<circle cx="649" cy="649" r="275" fill="#FFBF00"/>
<circle cx="649" cy="649" r="229.5" stroke="#EC9800" stroke-width="25"/>
<path d="M768 728.8C768 751.733 758.8 769.6 740.4 782.4C722.267 794.933 697.733 801.467 666.8 802V832C666.8 836.267 665.6 839.6 663.2 842C660.8 844.667 657.333 846 652.8 846C648.267 846 644.933 844.667 642.8 842C640.667 839.6 639.6 836.267 639.6 832V800.8C618.8 798.667 599.333 793.467 581.2 785.2C563.333 776.667 548.533 765.867 536.8 752.8C534.133 749.867 532.8 746.533 532.8 742.8C532.8 737.733 535.067 733.333 539.6 729.6C542.533 727.2 545.467 726 548.4 726C552.933 726 558 728.533 563.6 733.6C582.8 753.067 608.133 764.933 639.6 769.2V674C606 665.733 581.067 655.6 564.8 643.6C548.8 631.333 540.8 614.4 540.8 592.8C540.8 572.533 549.333 556 566.4 543.2C583.733 530.133 608.133 523.067 639.6 522V484.4C639.6 475.067 644 470.4 652.8 470.4C657.333 470.4 660.8 471.733 663.2 474.4C665.6 476.8 666.8 480.133 666.8 484.4V522.8C687.6 524.933 705.867 530 721.6 538C737.6 546 749.333 556.267 756.8 568.8C758.933 572 760 575.467 760 579.2C760 584 757.467 588.267 752.4 592C750 593.6 747.2 594.4 744 594.4C737.333 594.4 732 591.733 728 586.4C721.867 577.867 713.6 570.933 703.2 565.6C692.8 560 680.667 556.267 666.8 554.4V644.4C699.867 652.133 724.933 662.667 742 676C759.333 689.067 768 706.667 768 728.8ZM578.8 592.8C578.8 605.067 583.733 614.533 593.6 621.2C603.733 627.867 619.067 633.6 639.6 638.4V553.2C599.067 554.8 578.8 568 578.8 592.8ZM666.8 770.8C708.667 769.467 729.6 755.467 729.6 728.8C729.6 716.267 724.533 706.4 714.4 699.2C704.267 692 688.4 685.733 666.8 680.4V770.8Z" fill="white"/>
</g>
<g filter="url(#filter1_d_118_42)">
<path d="M709.866 246.179L780.757 257.028C777.589 225.167 769.72 189.788 748.631 159.928C725.059 126.522 684.441 99.4947 614.376 91.1501C609.172 90.5345 605.451 85.8062 606.066 80.6092C606.542 76.5872 609.466 73.4607 613.159 72.5164C635.989 64.9062 657.554 60.9962 677.803 60.1708C733.382 57.8906 778.75 78.6507 813.331 109.301C847.577 139.651 871.184 179.779 883.564 216.627C888.314 230.763 891.44 244.5 892.909 257.07L952.993 246.256C958.127 245.34 963.058 248.76 963.975 253.894C964.478 256.748 963.653 259.525 961.946 261.595L842.03 406.566C838.694 410.595 832.706 411.162 828.677 407.825L827.572 406.748L701.291 261.805C697.85 257.853 698.269 251.852 702.221 248.403C704.404 246.501 707.209 245.78 709.866 246.179Z" fill="#E9F2FB"/>
</g>
<g filter="url(#filter2_d_118_42)">
<path d="M314.254 777.821L243.364 766.972C246.532 798.833 254.401 834.212 275.49 864.072C299.062 897.478 339.68 924.505 409.745 932.85C414.949 933.465 418.67 938.194 418.055 943.391C417.579 947.413 414.655 950.539 410.962 951.484C388.132 959.094 366.567 963.004 346.318 963.829C290.738 966.109 245.371 945.349 210.79 914.699C176.544 884.349 152.937 844.221 140.557 807.373C135.807 793.237 132.681 779.5 131.212 766.93L71.1279 777.744C65.9938 778.66 61.0626 775.24 60.1463 770.106C59.6427 767.252 60.4681 764.475 62.1748 762.405L182.091 617.434C185.427 613.405 191.415 612.838 195.444 616.175L196.549 617.252L322.83 762.195C326.271 766.147 325.852 772.148 321.9 775.597C319.717 777.499 316.912 778.219 314.254 777.821Z" fill="#E9F2FB"/>
</g>
<defs>
<filter id="filter0_d_118_42" x="360" y="374" width="564" height="563" filterUnits="userSpaceOnUse" color-interpolation-filters="sRGB">
<feFlood flood-opacity="0" result="BackgroundImageFix"/>
<feColorMatrix in="SourceAlpha" type="matrix" values="0 0 0 0 0 0 0 0 0 0 0 0 0 0 0 0 0 0 127 0" result="hardAlpha"/>
<feOffset dx="-10" dy="9"/>
<feGaussianBlur stdDeviation="2"/>
<feComposite in2="hardAlpha" operator="out"/>
<feColorMatrix type="matrix" values="0 0 0 0 0 0 0 0 0 0 0 0 0 0 0 0 0 0 0.25 0"/>
<feBlend mode="normal" in2="BackgroundImageFix" result="effect1_dropShadow_118_42"/>
<feBlend mode="normal" in="SourceGraphic" in2="effect1_dropShadow_118_42" result="shape"/>
</filter>
<filter id="filter1_d_118_42" x="590" y="60" width="374.121" height="360" filterUnits="userSpaceOnUse" color-interpolation-filters="sRGB">
<feFlood flood-opacity="0" result="BackgroundImageFix"/>
<feColorMatrix in="SourceAlpha" type="matrix" values="0 0 0 0 0 0 0 0 0 0 0 0 0 0 0 0 0 0 127 0" result="hardAlpha"/>
<feOffset dx="-12" dy="6"/>
<feGaussianBlur stdDeviation="2"/>
<feComposite in2="hardAlpha" operator="out"/>
<feColorMatrix type="matrix" values="0 0 0 0 0 0 0 0 0 0 0 0 0 0 0 0 0 0 0.4 0"/>
<feBlend mode="normal" in2="BackgroundImageFix" result="effect1_dropShadow_118_42"/>
<feBlend mode="normal" in="SourceGraphic" in2="effect1_dropShadow_118_42" result="shape"/>
</filter>
<filter id="filter2_d_118_42" x="56" y="614" width="366.121" height="368" filterUnits="userSpaceOnUse" color-interpolation-filters="sRGB">
<feFlood flood-opacity="0" result="BackgroundImageFix"/>
<feColorMatrix in="SourceAlpha" type="matrix" values="0 0 0 0 0 0 0 0 0 0 0 0 0 0 0 0 0 0 127 0" result="hardAlpha"/>
<feOffset dy="14"/>
<feGaussianBlur stdDeviation="2"/>
<feComposite in2="hardAlpha" operator="out"/>
<feColorMatrix type="matrix" values="0 0 0 0 0 0 0 0 0 0 0 0 0 0 0 0 0 0 0.4 0"/>
<feBlend mode="normal" in2="BackgroundImageFix" result="effect1_dropShadow_118_42"/>
<feBlend mode="normal" in="SourceGraphic" in2="effect1_dropShadow_118_42" result="shape"/>
</filter>
<linearGradient id="paint0_linear_118_42" x1="512" y1="0" x2="512" y2="1024" gradientUnits="userSpaceOnUse">
<stop stop-color="#2F9DFF"/>
<stop offset="1" stop-color="#007AFF"/>
</linearGradient>
<linearGradient id="paint1_linear_118_42" x1="380" y1="133" x2="380" y2="617" gradientUnits="userSpaceOnUse">
<stop stop-color="#619DCE"/>
<stop offset="1" stop-color="#6E91A5"/>
</linearGradient>
</defs>
</svg>
