<svg width="1024" height="1024" viewBox="0 0 1024 1024" fill="none" xmlns="http://www.w3.org/2000/svg">
<rect width="1024" height="1024" fill="url(#paint0_radial_13_43)"/>
<path d="M805.858 371.072C826.364 368.935 852.156 366.076 863.68 364.343C884.33 361.252 895.536 354.581 888.374 344.818C883.724 338.522 871.622 333.872 860.589 330.666C854.524 328.905 848.777 327.576 844.82 326.594C833.642 323.937 824.198 326.161 820.155 329.251C816.111 332.37 808.717 355.1 804.241 357.758C801.872 359.173 795.894 359.981 790.753 360.415C784.254 347.62 755.141 292.282 724.411 263.111C714.909 254.071 708.266 245.984 666.445 241.508C608.912 235.414 512.013 235.385 512.013 235.385C512.013 235.385 415.114 235.414 357.553 241.566C315.731 246.042 309.117 254.129 299.586 263.169C268.856 292.34 239.772 347.678 233.245 360.472C228.104 360.039 222.125 359.231 219.757 357.815C215.28 355.158 207.886 332.428 203.843 329.309C199.77 326.218 190.355 323.966 179.178 326.652C167.971 329.309 142.815 335.114 135.624 344.876C128.461 354.638 139.696 361.31 160.318 364.4C173.286 366.364 204.276 369.715 225.562 371.939C207.973 380.719 190.239 391.896 176.492 402.958C162.773 414.048 153.039 425.052 151.595 433.515C148.707 450.411 151.595 489.69 151.595 489.69C151.595 489.69 156.679 473.372 164.188 443.277C167.711 429.183 209.966 402.351 231.685 390.105C231.685 390.105 251.7 393.831 284.914 411.94C315.067 428.403 338.808 452.461 338.808 452.461C338.808 452.461 329.797 429.587 302.388 409.889C302.272 409.832 274.141 384.849 274.141 384.849C274.141 384.849 313.334 374.365 511.955 374.365C655.036 374.365 753.553 381.267 753.553 381.267C753.553 381.267 721.869 409.658 721.523 409.889C694.114 429.558 685.103 452.461 685.103 452.461C685.103 452.461 707.948 426.641 738.996 411.94C751.3 406.106 786.392 390.856 786.392 390.856C824.054 407.897 855.882 429.212 859.405 443.277C866.914 473.372 871.998 489.69 871.998 489.69C871.998 489.69 874.857 450.411 871.998 433.515C869.225 417.37 836.242 391.781 802.594 374.249C801.237 373.527 799.908 372.863 798.522 372.17L798.349 371.91C800.659 371.65 803.114 371.419 805.656 371.13C805.685 371.13 805.743 371.13 805.771 371.101L805.858 371.072ZM260.018 361.945C260.018 361.945 284.741 299.734 315.587 270.216C324.165 262.014 330.028 254.562 371.762 250.432C408.962 246.735 462.798 245.436 496.475 244.974V244.685C496.475 244.685 502.367 244.685 512.042 244.771C521.689 244.685 527.609 244.685 527.609 244.685V244.974C561.257 245.436 615.122 246.735 652.322 250.432C694.056 254.562 699.89 261.985 708.497 270.216C739.343 299.734 764.066 361.945 764.066 361.945C691.745 356.429 332.367 356.429 260.076 361.945H260.018Z" fill="#F5F5F5"/>
<path d="M625.028 461.01C613.158 473.949 610.616 487.668 591.9 493.185C573.185 498.701 511.984 499.857 511.984 499.857C511.984 499.857 450.783 498.672 432.068 493.185C413.352 487.668 410.84 473.949 398.94 461.01C389.323 450.526 384.21 448.88 384.21 448.88C388.283 454.425 399.605 475.885 406.998 492.983C411.013 502.225 431.606 505.517 441.974 507.424C460.69 510.861 511.955 510.861 511.955 510.861C511.955 510.861 563.221 510.861 581.936 507.424C592.305 505.517 612.927 502.225 616.912 492.983C624.306 475.885 635.628 454.454 639.7 448.88C639.7 448.88 634.617 450.555 624.97 461.01H625.028Z" fill="#F5F5F5"/>
<path d="M512.013 482.412C530.18 482.412 577.489 480.564 584.132 474.066C590.803 467.567 595.453 463.321 600.796 459.018C600.796 459.018 583.323 467.394 573.33 469.849C563.337 472.304 527.407 474.066 512.042 474.066C496.677 474.066 460.748 472.304 450.755 469.849C440.762 467.394 423.288 459.018 423.288 459.018C428.631 463.321 433.281 467.567 439.953 474.066C446.625 480.564 493.904 482.412 512.071 482.412H512.013Z" fill="#F5F5F5"/>
<path d="M210.688 428.605C210.688 428.605 263.946 444.663 280.149 453.125C310.1 468.75 331.934 502.716 331.934 502.716C331.934 502.716 306.807 495.206 273.102 492.925C254.271 491.654 215.482 489.517 205.605 473.863C191.568 451.623 207.684 430.193 210.688 428.576V428.605Z" fill="#F5F5F5"/>
<g style="mix-blend-mode:multiply" opacity="0.1">
<path d="M210.688 428.604C210.688 428.604 224.465 462.252 240.668 470.714C270.618 486.339 331.934 502.744 331.934 502.744C331.934 502.744 306.807 495.235 273.102 492.953C254.271 491.683 215.482 489.545 205.605 473.891C191.568 451.652 207.684 430.222 210.688 428.604Z" fill="#00191F"/>
</g>
<path d="M813.367 428.605C813.367 428.605 760.109 444.663 743.906 453.125C713.956 468.75 692.121 502.716 692.121 502.716C692.121 502.716 717.248 495.206 750.954 492.925C769.785 491.654 808.573 489.517 818.451 473.863C832.487 451.623 816.371 430.193 813.367 428.576V428.605Z" fill="#F5F5F5"/>
<g style="mix-blend-mode:multiply" opacity="0.1">
<path d="M813.367 428.604C813.367 428.604 799.591 462.252 783.388 470.714C753.437 486.339 692.121 502.744 692.121 502.744C692.121 502.744 717.248 495.235 750.954 492.953C769.785 491.683 808.573 489.545 818.451 473.891C832.487 451.652 816.371 430.222 813.367 428.604Z" fill="#00191F"/>
</g>
<g style="mix-blend-mode:multiply" opacity="0.1">
<path d="M863.68 364.372C852.185 366.105 826.393 368.964 805.858 371.101C826.566 366.567 848.863 349.238 860.589 330.695C871.622 333.93 883.724 338.58 888.374 344.847C895.536 354.61 884.301 361.281 863.68 364.372Z" fill="#00191F"/>
</g>
<g style="mix-blend-mode:multiply" opacity="0.1">
<path d="M160.375 363.939C171.87 365.671 197.662 368.531 218.197 370.668C197.489 366.134 175.192 348.804 163.466 330.262C152.433 333.497 140.331 338.147 135.681 344.414C128.519 354.176 139.754 360.848 160.375 363.939Z" fill="#00191F"/>
</g>
<path d="M512 556.377C666.749 556.377 813.759 554.413 946.5 550.861C834.496 562.124 681.19 569.056 512 569.056C342.81 569.056 189.504 562.096 77.5 550.861C210.213 554.413 357.251 556.377 512 556.377Z" fill="url(#paint1_radial_13_43)"/>
<path d="M788.588 609.056C781.57 625.952 773.223 641.866 763.663 656.769L720.109 648.682C705.755 668.12 689.003 685.16 670.316 699.572L679.328 742.982C647.817 764.181 612.553 779.229 575.439 787.316L550.341 750.809C527.033 754.332 503.09 754.621 479.118 751.56L454.828 788.615C436.546 785.034 418.321 779.777 400.415 772.586C382.479 765.365 365.699 756.585 350.016 746.505L358.074 702.951C338.636 688.597 321.596 671.846 307.184 653.159L263.774 662.17C252.568 645.476 243.066 627.685 235.412 609.114H319.921C319.921 609.114 320.094 609.403 320.181 609.547C344.384 650.069 381.526 683.312 428.661 702.258C532.145 743.819 648.366 702.518 703.762 609.692C703.906 609.489 704.022 609.345 704.108 609.143H788.588V609.056Z" fill="#F5F5F5"/>
<g style="mix-blend-mode:multiply" opacity="0.1">
<path d="M703.762 609.604C672.743 689.925 598.574 737.754 511.986 737.754C425.398 737.754 351.171 689.838 320.152 609.46C344.355 649.981 381.497 683.224 428.632 702.171C532.116 743.732 648.337 702.431 703.733 609.604H703.762Z" fill="#00191F"/>
</g>
<defs>
<radialGradient id="paint0_radial_13_43" cx="0" cy="0" r="1" gradientUnits="userSpaceOnUse" gradientTransform="translate(512 512) rotate(90) scale(1100)">
<stop stop-color="#12A1EE"/>
<stop offset="0.7" stop-color="#00334F"/>
</radialGradient>
<radialGradient id="paint1_radial_13_43" cx="0" cy="0" r="1" gradientUnits="userSpaceOnUse" gradientTransform="translate(512 559.958) rotate(-90) scale(9.09782 434.5)">
<stop stop-color="#595959"/>
<stop offset="1" stop-color="#2C2C2C"/>
</radialGradient>
</defs>
</svg>
