<svg width="1024" height="1024" viewBox="0 0 1024 1024" fill="none" xmlns="http://www.w3.org/2000/svg">
<g clip-path="url(#clip0_3161_9991)">
<rect width="1024" height="1024" fill="white"/>
<path d="M844.48 504.64C838.56 502.88 831.04 501.92 823.36 503.68C808.335 507.231 807.886 526.292 808.076 531.793C808.107 532.682 807.591 533.505 806.764 533.833L802.3 535.599C801.289 536 800.143 535.518 799.721 534.515L744 402.08C740.96 394.72 734.56 390.08 727.52 390.08H435.36C428.32 390.08 421.92 394.72 418.88 402.08L363.159 534.515C362.737 535.518 361.591 536 360.58 535.599L356.116 533.833C355.289 533.505 354.773 532.682 354.804 531.793C354.994 526.292 354.545 507.231 339.52 503.68C331.68 501.92 324.16 502.88 318.24 504.64C310.72 507.04 306.08 515.2 307.04 524.32C307.36 529.92 309.44 534.08 312.48 536.32C313.28 536.96 314.24 537.44 315.04 537.76L351.167 551.793C352.441 552.288 352.946 553.958 352.095 555.028C351.91 555.26 351.72 555.48 351.52 555.68L340.48 568C333.12 576.16 328.96 587.68 328.96 599.68V699.84C328.96 715.36 339.68 728 352.96 728H809.92C823.2 728 833.92 715.36 833.92 699.84V599.68C833.92 587.68 829.76 576.32 822.4 568L811.36 555.68C811.171 555.453 810.991 555.227 810.816 555C809.98 553.919 810.435 552.287 811.708 551.79L847.68 537.76C848.64 537.44 849.6 536.96 850.4 536.32C853.6 533.92 855.52 529.92 855.84 524.32C856.64 515.2 852 507.04 844.48 504.64ZM442.042 422.817C442.356 422.079 443.081 421.6 443.882 421.6H718.837C719.639 421.6 720.364 422.079 720.678 422.817L767.1 531.908C767.626 533.146 766.804 534.541 765.466 534.678C642.78 547.267 519.94 547.267 397.254 534.678C395.916 534.541 395.093 533.146 395.62 531.908L442.042 422.817ZM441.832 672.393C441.627 673.282 440.834 673.906 439.922 673.879C429.573 673.58 369.602 671.46 362.88 662.4C351.68 647.36 357.92 604.779 354.72 599.68C351.555 594.636 452.492 626.183 441.832 672.393ZM681.315 669.016C681.003 669.758 680.277 670.24 679.472 670.24H483.412C482.605 670.24 481.877 669.755 481.566 669.011L460.845 619.433C460.614 618.88 460.643 618.253 460.923 617.724L476.556 588.263C476.903 587.609 477.583 587.2 478.323 587.2H684.717C685.457 587.2 686.137 587.609 686.484 588.263L702.115 617.721C702.397 618.252 702.425 618.881 702.192 619.435L681.315 669.016ZM799.84 662.4C793.118 671.46 733.141 673.58 722.796 673.88C721.885 673.906 721.093 673.283 720.888 672.395C710.236 626.338 811.325 594.636 808.16 599.68C804.96 604.779 811.04 647.36 799.84 662.4Z" fill="url(#paint0_linear_3161_9991)"/>
<path d="M741.84 737.92C740.735 737.92 739.84 738.815 739.84 739.92V759.2C739.84 766.08 744.48 771.52 750.24 771.52H805.6C811.36 771.52 816.16 766.08 816.16 759.2V739.634C816.16 738.348 814.964 737.404 813.693 737.604C812.436 737.803 811.178 737.92 809.92 737.92H741.84ZM349.025 737.625C347.812 737.453 346.72 738.385 346.72 739.611V759.36C346.72 766.24 351.36 771.68 357.12 771.68H412.48C418.24 771.68 423.04 766.24 423.04 759.36V740.08C423.04 738.975 422.145 738.08 421.04 738.08H353.12C351.705 737.979 350.353 737.814 349.025 737.625ZM334.205 559.417C335.086 558.368 334.676 556.764 333.4 556.267L311.36 547.68C309.76 547.2 307.84 546.08 306.08 544.64C300.48 540.48 296.96 533.28 296.48 524.64C295.04 511.2 302.88 498.08 315.2 494.4C320.64 492.8 326.08 492 331.04 492C334.72 492 338.4 492.32 341.92 493.12C350.47 495.093 356.1 500.094 359.788 506.167C360.696 507.661 363.026 507.612 363.704 506L382.869 460.448C383.414 459.153 382.489 457.715 381.085 457.671C340.084 456.377 299.226 453.62 258.372 449.4C257.034 449.262 256.213 447.868 256.739 446.63L303.162 337.537C303.476 336.799 304.2 336.32 305.002 336.32H579.959C580.76 336.32 581.484 336.798 581.798 337.535L599.322 378.625C599.636 379.362 600.36 379.84 601.161 379.84H628.348C629.778 379.84 630.746 378.382 630.191 377.064L604.96 317.12C601.92 309.76 595.36 304.96 588.48 304.96H296.64C289.6 304.96 283.2 309.6 280.16 317.12L224.467 449.49C224.034 450.519 222.844 450.994 221.821 450.547L217.325 448.58C216.534 448.234 216.051 447.432 216.082 446.569C216.277 441.143 215.877 421.964 200.8 418.4C193.12 416.64 185.6 417.6 179.68 419.36C172.16 421.76 167.52 429.92 168.48 439.04C168.8 444.64 170.88 448.8 173.92 451.2C174.72 451.84 175.68 452.32 176.48 452.64L212.607 466.673C213.881 467.168 214.367 468.823 213.567 469.931C213.372 470.201 213.171 470.466 212.96 470.72L201.76 483.04C194.4 491.36 190.24 502.72 190.24 514.72V614.88C190.24 630.4 200.96 643.04 214.24 643.04H316.4C317.504 643.04 318.4 642.145 318.4 641.04V600C318.4 585.44 323.52 571.36 332.64 561.28L334.205 559.417ZM303.114 586.952C302.907 587.84 302.115 588.466 301.204 588.44C290.859 588.14 230.882 586.02 224.16 576.96C214.479 564.099 215.437 526.971 215.875 517.135C215.931 515.873 217.118 515.028 218.33 515.384C233.105 519.732 312.842 545.249 303.114 586.952ZM210.51 652.347C209.223 652.151 208 653.1 208 654.402V673.92C208 680.8 212.64 686.24 218.4 686.24H273.76C279.52 686.24 284.32 680.8 284.32 673.92V654.64C284.32 653.535 283.425 652.64 282.32 652.64H214.4C213.006 652.64 211.719 652.532 210.51 652.347Z" fill="url(#paint1_linear_3161_9991)"/>
<path d="M739.097 355.097C736.619 355.097 734.968 356.748 734.968 359.226C734.968 361.703 736.619 363.355 739.097 363.355C750.658 363.355 759.742 372.439 759.742 384C759.742 386.477 761.394 388.129 763.871 388.129C766.348 388.129 768 386.477 768 384C768 368.31 754.787 355.097 739.097 355.097Z" fill="url(#paint2_linear_3161_9991)"/>
<path d="M245.548 299.319C244.906 301.712 246.074 303.735 248.467 304.376C250.86 305.017 252.883 303.849 253.524 301.456C256.517 290.289 267.642 283.866 278.809 286.858C281.202 287.499 283.225 286.331 283.866 283.938C284.508 281.545 283.34 279.522 280.947 278.881C265.791 274.82 249.609 284.163 245.548 299.319Z" fill="url(#paint3_linear_3161_9991)"/>
<path d="M751.484 322.064C746.529 322.064 743.226 325.368 743.226 330.323C743.226 335.277 746.529 338.581 751.484 338.581C774.606 338.581 792.774 356.748 792.774 379.871C792.774 384.826 796.077 388.129 801.032 388.129C805.987 388.129 809.29 384.826 809.29 379.871C809.29 348.49 782.865 322.064 751.484 322.064Z" fill="url(#paint4_linear_3161_9991)"/>
<path d="M216.847 278.804C215.565 283.59 217.9 287.636 222.686 288.918C227.472 290.201 231.518 287.865 232.8 283.079C238.785 260.744 261.036 247.898 283.371 253.882C288.157 255.165 292.202 252.829 293.485 248.043C294.767 243.257 292.431 239.212 287.645 237.929C257.334 229.807 224.969 248.493 216.847 278.804Z" fill="url(#paint5_linear_3161_9991)"/>
</g>
<defs>
<linearGradient id="paint0_linear_3161_9991" x1="581.422" y1="390.08" x2="581.422" y2="728" gradientUnits="userSpaceOnUse">
<stop stop-color="#007AFF" stop-opacity="0.76"/>
<stop offset="1" stop-color="#007AFF"/>
</linearGradient>
<linearGradient id="paint1_linear_3161_9991" x1="492.257" y1="304.96" x2="492.257" y2="771.68" gradientUnits="userSpaceOnUse">
<stop stop-color="#007AFF" stop-opacity="0.76"/>
<stop offset="1" stop-color="#007AFF"/>
</linearGradient>
<linearGradient id="paint2_linear_3161_9991" x1="751.484" y1="355.097" x2="751.484" y2="388.129" gradientUnits="userSpaceOnUse">
<stop stop-color="#007AFF" stop-opacity="0.76"/>
<stop offset="1" stop-color="#007AFF"/>
</linearGradient>
<linearGradient id="paint3_linear_3161_9991" x1="248.754" y1="287.354" x2="280.66" y2="295.903" gradientUnits="userSpaceOnUse">
<stop stop-color="#007AFF" stop-opacity="0.76"/>
<stop offset="1" stop-color="#007AFF"/>
</linearGradient>
<linearGradient id="paint4_linear_3161_9991" x1="776.258" y1="322.064" x2="776.258" y2="388.129" gradientUnits="userSpaceOnUse">
<stop stop-color="#007AFF" stop-opacity="0.76"/>
<stop offset="1" stop-color="#007AFF"/>
</linearGradient>
<linearGradient id="paint5_linear_3161_9991" x1="223.259" y1="254.874" x2="287.073" y2="271.973" gradientUnits="userSpaceOnUse">
<stop stop-color="#007AFF" stop-opacity="0.76"/>
<stop offset="1" stop-color="#007AFF"/>
</linearGradient>
<clipPath id="clip0_3161_9991">
<rect width="1024" height="1024" fill="white"/>
</clipPath>
</defs>
</svg>
