<svg width="200" height="80" viewBox="0 0 200 80" fill="none" xmlns="http://www.w3.org/2000/svg">
<path d="M38.6259 72.4705L26.3144 51.2048L50.9373 51.2048L38.6259 72.4705Z" fill="#FE7F2D"/>
<path d="M38.7402 30.0798L14.1172 30.0798L26.4287 51.3455L38.7402 30.0798Z" fill="#0088CC"/>
<path d="M35.454 46.3907L60.077 46.3907L47.7655 25.125L35.454 46.3907Z" fill="#0088CC"/>
<path d="M35.5683 4L47.8798 25.2657H23.2568L35.5683 4Z" fill="#FE7F2D"/>
<path d="M72.3993 51V47.22L87.9873 28.428L88.7073 30.552H72.6873V25.8H93.8913V29.58L78.3393 48.372L77.6193 46.248H94.4313V51H72.3993ZM98.1716 51V25.8H110.484C113.652 25.8 116.028 26.4 117.612 27.6C119.22 28.8 120.024 30.384 120.024 32.352C120.024 33.672 119.7 34.824 119.052 35.808C118.404 36.768 117.516 37.512 116.388 38.04C115.26 38.568 113.964 38.832 112.5 38.832L113.184 37.356C114.768 37.356 116.172 37.62 117.396 38.148C118.62 38.652 119.568 39.408 120.24 40.416C120.936 41.424 121.284 42.66 121.284 44.124C121.284 46.284 120.432 47.976 118.728 49.2C117.024 50.4 114.516 51 111.204 51H98.1716ZM103.968 46.608H110.772C112.284 46.608 113.424 46.368 114.192 45.888C114.984 45.384 115.38 44.592 115.38 43.512C115.38 42.456 114.984 41.676 114.192 41.172C113.424 40.644 112.284 40.38 110.772 40.38H103.536V36.132H109.764C111.18 36.132 112.26 35.892 113.004 35.412C113.772 34.908 114.156 34.152 114.156 33.144C114.156 32.16 113.772 31.428 113.004 30.948C112.26 30.444 111.18 30.192 109.764 30.192H103.968V46.608ZM131.063 35.952H143.195V40.488H131.063V35.952ZM131.495 46.32H145.211V51H125.699V25.8H144.743V30.48H131.495V46.32ZM155.071 45.24L154.747 38.508L166.807 25.8H173.287L162.415 37.5L159.175 40.956L155.071 45.24ZM149.851 51V25.8H155.647V51H149.851ZM167.095 51L158.131 40.02L161.947 35.88L173.899 51H167.095ZM174.88 51V47.22L190.468 28.428L191.188 30.552H175.168V25.8H196.372V29.58L180.82 48.372L180.1 46.248H196.912V51H174.88Z" fill="#0088CC"/>
</svg>
