<svg width="1024" height="1024" viewBox="0 0 1024 1024" fill="none" xmlns="http://www.w3.org/2000/svg">
<rect width="1024" height="1024" fill="url(#paint0_linear_319_3810)"/>
<g clip-path="url(#clip0_319_3810)">
<path d="M512.001 87C277.653 87 87.0098 277.661 87.0098 512C87.0098 746.339 277.653 937 512.001 937C746.348 937 936.992 746.339 936.992 512C936.992 277.661 746.348 87 512.001 87ZM512.001 919.35C287.381 919.35 104.642 736.61 104.642 512C104.642 287.39 287.381 104.65 512.001 104.65C736.62 104.65 919.359 287.39 919.359 512C919.359 736.61 736.62 919.35 512.001 919.35Z" fill="white"/>
<path d="M507.591 139.934C298.444 139.934 128.891 309.469 128.891 518.616C128.891 727.763 298.444 897.298 507.582 897.298C716.711 897.298 886.273 727.754 886.273 518.616C886.273 309.469 716.738 139.934 507.591 139.934ZM548.763 796.55C527.71 807.73 507.682 810.833 491.973 810.833C472.599 810.833 459.803 806.114 459.803 806.114L206.861 699.486L468.397 699.867L508.916 590.67L564.218 699.495H777.457C777.457 699.495 595.816 771.567 548.763 796.55ZM752.302 683.378L562.53 684.93L519.216 601.36L569.354 510.403L621.253 619.827H728.517L633.731 336.212L632.76 333.399L515.795 419.664L388.974 331.775L291.084 619.809H408.204L447.035 509.686L501.974 593.673L466.936 685.71L272.055 687.289C271.029 686.599 269.042 685.075 269.042 685.075L268.425 684.612C223.141 651.661 193.258 590.742 193.258 528.553C193.258 442.551 250.157 370.715 326.422 352.121C331.014 260.855 412.723 188.103 513.108 188.103C608.221 188.103 686.61 253.423 698.507 337.909C780.888 351.395 844.003 426.216 844.003 516.765C843.994 586.241 806.769 652.968 752.302 683.378Z" fill="white"/>
</g>
<defs>
<linearGradient id="paint0_linear_319_3810" x1="512" y1="0" x2="512" y2="1024" gradientUnits="userSpaceOnUse">
<stop stop-color="#38A5FF"/>
<stop offset="1" stop-color="#0B84FE"/>
</linearGradient>
<clipPath id="clip0_319_3810">
<rect width="850" height="850" fill="white" transform="translate(87 87)"/>
</clipPath>
</defs>
</svg>
