<svg width="184" height="80" viewBox="0 0 184 80" fill="none" xmlns="http://www.w3.org/2000/svg">
<path fill-rule="evenodd" clip-rule="evenodd" d="M78.059 22.9583C74.6615 24.6505 72.8778 28.4977 73.8337 32.0705C75.0375 36.5677 79.5255 39.2314 84.1016 38.1643C86.3577 37.6385 86.5593 37.4016 85.6318 36.3705C84.917 35.5759 84.9404 35.4572 86.0124 34.4436C87.1332 33.3843 87.1726 33.3802 88.106 34.2302C88.9201 34.9716 89.1189 34.9989 89.488 34.4214C91.0697 31.9476 90.8902 27.6625 89.1037 25.2376C86.7695 22.0686 81.8739 21.0582 78.059 22.9583ZM57.7804 30.2823V38.1356H62.3716H66.9629V36.0568V33.978H64.6673H62.3716V28.2034V22.4289H60.076H57.7804V30.2823ZM67.8811 24.2767V26.1246H70.1768H72.4724V24.2767V22.4289H70.1768H67.8811V24.2767ZM91.7717 28.3189C91.7896 34.737 92.0798 35.756 94.3116 37.2366C95.9837 38.3453 100.372 38.4539 102.331 37.4348C104.61 36.249 105.07 34.7014 105.07 28.2265V22.4289H103.044H101.017L100.863 27.7798C100.729 32.4378 100.593 33.2153 99.8174 33.7853C98.6668 34.6302 97.9612 34.6122 97.0682 33.7142C96.4966 33.1386 96.3469 31.8922 96.3469 27.7087V22.4289H94.0513H91.7556L91.7717 28.3189ZM106.907 24.2767V26.1246H109.202H111.498V24.2767V22.4289H109.202H106.907V24.2767ZM113.335 30.3386V38.2488L117.352 38.0455C121.904 37.815 123.703 37.0842 125.477 34.7448C128.192 31.1623 127.131 25.8742 123.236 23.5773C121.567 22.5933 120.719 22.4289 117.311 22.4289H113.335V30.3386ZM136.291 39.9835V57.538H144.555H152.819V54.3043V51.0706H147.998H143.178V39.9451V28.8201L151.253 28.9735L159.328 29.1273L160.435 30.4236C161.655 31.8506 161.804 32.8951 161.033 34.5984C160.245 36.339 158.717 36.7497 153.027 36.7497H147.769V40.2144V43.6792H153.704C159.569 43.6792 159.651 43.6935 160.591 44.8964C161.664 46.2685 161.775 47.2806 161.033 48.9192C160.378 50.3656 158.808 51.0706 156.241 51.0706H154.197V54.3043V57.538H157.429C162.099 57.538 165.227 55.6657 167.229 51.6711C168.393 49.3493 168.214 44.7398 166.861 42.1792L165.751 40.0796L166.894 37.8372C167.863 35.9339 168.013 35.0927 167.881 32.2747C167.75 29.4715 167.51 28.6441 166.339 26.9621C165.544 25.8211 163.978 24.4315 162.673 23.7099L160.395 22.4506L148.343 22.4395L136.291 22.4289V39.9835ZM83.9174 26.8004C85.287 27.5128 85.787 28.3499 85.787 29.9298C85.787 30.8592 85.7599 30.8625 84.866 30.0485C84.3591 29.5875 83.8945 29.2964 83.833 29.4018C83.7715 29.5075 83.1213 30.261 82.3886 31.0764C81.2738 32.3163 81.1517 32.6748 81.6411 33.2684C82.659 34.5023 80.8477 34.1318 79.5682 32.8438C77.7312 30.9955 78.2105 27.4865 80.4221 26.5898C81.8656 26.0049 82.457 26.0405 83.9174 26.8004ZM121.531 27.8399C122.386 28.8035 122.557 29.3962 122.35 30.6777C122.029 32.6711 121.334 33.4074 119.412 33.7946L117.926 34.0934V30.0591V26.0243L119.188 26.3228C119.883 26.4872 120.937 27.1695 121.531 27.8399ZM67.9808 32.7076L68.1107 37.9046L70.2915 38.0455L72.4724 38.1864V32.8485V27.5105H70.1616H67.8508L67.9808 32.7076ZM106.907 32.823V38.1356H109.202H111.498V32.823V27.5105H109.202H106.907V32.823ZM62.1421 42.5183C60.2119 43.4306 59.4199 44.1476 58.2992 45.9973C56.2474 49.3839 57.5159 54.6152 60.9543 56.9467C62.1848 57.781 63.1425 58 65.5658 58C67.2976 58 68.9665 57.7482 69.4137 57.4188C70.1598 56.87 70.1584 56.7296 69.3866 54.879C68.7952 53.4608 68.3797 53.003 67.8811 53.2205C65.8986 54.0858 64.2495 53.9255 63.0865 52.7558C59.9043 49.5539 63.277 45.1718 67.7664 46.6745C68.5276 46.9295 68.7994 46.8404 68.7994 46.3359C68.7994 45.9599 69.236 45.0928 69.77 44.41C70.3039 43.7272 70.6653 43.1174 70.5734 43.0555C68.6286 41.7389 64.3656 41.4677 62.1421 42.5183ZM74.504 42.764C71.4338 44.2931 70.4063 46.0957 70.4063 49.9517C70.4063 52.8214 70.5638 53.4289 71.6928 54.9183C73.4737 57.2678 75.1105 58 78.5797 58C80.8767 58 81.8578 57.7704 83.0681 56.9495C87.4036 54.01 88.2925 48.1565 84.9661 44.4553C82.6292 41.8553 77.8722 41.0862 74.504 42.764ZM117.65 43.402C116.345 44.7149 116.089 45.308 116.089 47.0173C116.089 49.3636 117.172 50.7052 119.782 51.5903C121.874 52.2998 122.517 52.8436 122.211 53.6451C121.886 54.4974 120.34 54.4817 118.677 53.6086C117.953 53.2289 117.287 52.9184 117.196 52.9184C116.938 52.9184 115.63 55.589 115.63 56.1175C115.63 57.059 118.369 58 121.11 58C123.491 58 124.081 57.8194 125.31 56.7148C126.408 55.7276 126.796 54.9284 126.981 53.2718C127.198 51.3357 127.083 50.9745 125.861 49.7443C125.112 48.9903 123.64 48.1408 122.59 47.8567C121.433 47.543 120.681 47.0677 120.681 46.6496C120.681 45.6702 121.686 45.4074 123.206 45.989C124.723 46.5692 125.489 46.0403 125.966 44.0834C126.224 43.0232 126.074 42.8051 124.78 42.351C123.965 42.0651 122.379 41.8313 121.255 41.8313C119.543 41.8313 118.958 42.0863 117.65 43.402ZM16 49.8722V57.538H20.5242C24.6903 57.538 25.1444 57.4484 26.2633 56.4053C27.6691 55.0943 27.9262 52.3816 26.7977 50.761C26.1972 49.8976 26.1972 49.7175 26.7977 49.2158C27.889 48.3048 27.6526 45.321 26.3707 43.8205C25.3147 42.5843 25.0484 42.5169 20.6317 42.3653L16 42.2069V49.8722ZM32.5785 44.2566C32.119 45.3362 31.5836 46.7397 31.3885 47.3749C31.1934 48.0101 30.2251 50.5827 29.237 53.0916C28.2485 55.6006 27.5002 57.6919 27.5736 57.7395C27.6475 57.7866 28.7935 57.7404 30.1204 57.6369C32.2117 57.4738 32.5703 57.3006 32.8104 56.3383C33.0602 55.3372 33.3311 55.2282 35.5725 55.2282C37.7777 55.2282 38.1165 55.3585 38.5807 56.3831C39.0035 57.3168 39.4342 57.538 40.829 57.538C41.7776 57.538 42.8887 57.6674 43.2973 57.8249C44.1003 58.1349 44.1228 58.2047 39.8906 47.2594L37.9701 42.2933H35.6919C33.449 42.2933 33.4013 42.3238 32.5785 44.2566ZM44.4658 49.9157V57.538H46.7614H49.057L49.0726 55.1127L49.0878 52.6874L50.5386 55.0762L51.9894 57.465L54.7699 57.6355C56.2997 57.7293 57.6041 57.7787 57.6693 57.7455C57.734 57.7122 56.7519 56.3088 55.4861 54.6263C53.2603 51.6683 53.2162 51.5505 54.1423 51.0516C56.1725 49.9586 56.7033 46.5516 55.2047 44.2358C54.2203 42.7155 52.7282 42.2933 48.3385 42.2933H44.4658V49.9157ZM88.0826 49.9157V57.538H92.2377C97.0053 57.538 98.4065 57.0077 100.325 54.4762C102.085 52.1548 102.153 48.3242 100.479 45.8342C98.761 43.2791 96.3556 42.2933 91.8401 42.2933H88.0826V49.9157ZM102.775 49.9157V57.538H108.284H113.794V55.6902V53.8423H110.58H107.366V49.9157V45.989H110.58H113.794V44.1411V42.2933H108.284H102.775V49.9157ZM22.644 46.153C23.8809 47.063 23.2358 48.2988 21.5237 48.2988C20.2836 48.2988 20.1321 48.1482 20.1321 46.9129C20.1321 45.3612 21.1495 45.0535 22.644 46.153ZM51.1231 47.3217C51.1231 48.0429 50.7659 48.557 50.09 48.8083C49.1415 49.1617 49.057 49.0596 49.057 47.5587C49.057 46.1285 49.1856 45.9432 50.09 46.0721C50.8315 46.1784 51.1231 46.5309 51.1231 47.3217ZM79.9961 46.4311C80.6315 46.6741 81.4754 47.5033 81.8711 48.2729C82.5052 49.5064 82.5121 49.8611 81.9322 51.2581C79.84 56.2958 73.1193 53.1596 75.0664 48.0544C75.2303 47.6239 76.0049 46.9914 76.7882 46.6487C78.5292 45.886 78.5645 45.8836 79.9961 46.4311ZM96.2789 47.7042C98.2449 49.9212 96.6426 53.8423 93.7707 53.8423C92.6991 53.8423 92.6739 53.7504 92.6739 49.8658V45.8887L93.9365 46.1872C94.6307 46.3516 95.6853 47.0339 96.2789 47.7042ZM36.6446 50.9551C36.6533 51.2729 36.2235 51.5325 35.6887 51.5325C34.9049 51.5325 34.7704 51.3316 34.994 50.4931C35.146 49.9217 35.281 49.1419 35.2934 48.7607C35.3195 47.9528 36.6193 50.0635 36.6446 50.9551ZM109.202 50.1466V51.9945H111.498H113.794V50.1466V48.2988H111.498H109.202V50.1466ZM22.8818 52.2195C23.7583 53.282 23.0921 54.3043 21.5237 54.3043C20.2836 54.3043 20.1321 54.1537 20.1321 52.9184C20.1321 51.7672 20.3167 51.5325 21.2239 51.5325C21.824 51.5325 22.5705 51.8416 22.8818 52.2195Z" fill="#161413"/>
</svg>
